<svg xmlns="http://www.w3.org/2000/svg" width="256" height="256"><path fill-opacity=".016" d="M0 128.004v128.004l128.25-.254 128.25-.254.254-127.75L257.008 0H0v128.004m.485.496c0 70.4.119 99.053.265 63.672.146-35.38.146-92.98 0-128C.604 29.153.485 58.1.485 128.5" fill="#1976D2" fill-rule="evenodd"/><path fill-opacity=".048" d="M142.989 50.25c-1.09 1.788-1.983 4.263-1.985 5.5-.002 1.237-.419 2.25-.926 2.25-2.699 0-4.082 12.766-2.695 24.874l.845 7.375-4.864-2.557c-14.556-7.651-30.636-7.417-42.311.615-11.331 7.796-25.014 23.685-26.595 30.883-.341 1.555-1.001 2.592-1.466 2.305-.464-.287-1.169 2.072-1.566 5.241-.509 4.062-.93 5.173-1.426 3.764-1.141-3.239-3 9.829-2.999 21.082.001 10.57 1.176 17.912 5.428 33.918 1.462 5.5 2.535 11.188 2.386 12.64-.149 1.452.347 3.794 1.102 5.205 1.376 2.57 6.525 5.655 9.44 5.655 1.413 0 12.132 9.98 40.094 37.328l10.049 9.828 16.972-.624c13.819-.508 17.314-.934 18.811-2.289 1.458-1.319 2.005-1.395 2.639-.369.621 1.005.94.929 1.427-.342.367-.956.217-1.382-.36-1.025-1.392.86-1.234-.862.211-2.307 1.58-1.58 3.125-1.544 2.167.05-.51.849-.209.81.941-.122 1.832-1.486 2.32-2.634.692-1.628-1.4.865-1.251-.849.2-2.3 1.58-1.58 3.125-1.544 2.167.05-.51.849-.209.81.941-.122 1.832-1.486 2.32-2.634.692-1.628-1.4.865-1.251-.849.2-2.3 1.58-1.58 3.125-1.544 2.167.05-.51.849-.209.81.941-.122 1.832-1.486 2.32-2.634.692-1.628-1.4.865-1.251-.849.2-2.3 1.58-1.58 3.125-1.544 2.167.05-.51.849-.209.81.941-.122 1.832-1.486 2.32-2.634.692-1.628-1.4.865-1.251-.849.2-2.3 1.58-1.58 3.125-1.544 2.167.05-.51.849-.209.81.941-.122 1.832-1.486 2.32-2.634.692-1.628-1.4.865-1.251-.849.2-2.3 1.58-1.58 3.125-1.544 2.167.05-.51.849-.209.81.941-.122 1.832-1.486 2.32-2.634.692-1.628-1.4.865-1.251-.849.2-2.3 1.451-1.451 3.165-1.6 2.3-.2-1.006 1.628.142 1.14 1.628-.692.932-1.15.971-1.451.122-.941-1.594.958-1.63-.587-.05-2.167 1.451-1.451 3.165-1.6 2.3-.2-1.006 1.628.142 1.14 1.628-.692.932-1.15.971-1.451.122-.941-1.594.958-1.63-.587-.05-2.167 1.451-1.451 3.165-1.6 2.3-.2-1.006 1.628.142 1.14 1.628-.692.932-1.15.971-1.451.122-.941-1.594.958-1.63-.587-.05-2.167 1.451-1.451 3.165-1.6 2.3-.2-1.006 1.628.142 1.14 1.628-.692.932-1.15.971-1.451.122-.941-1.594.958-1.63-.587-.05-2.167 1.451-1.451 3.165-1.6 2.3-.2-1.006 1.628.142 1.14 1.628-.692.932-1.15.971-1.451.122-.941-1.594.958-1.63-.587-.05-2.167 1.451-1.451 3.165-1.6 2.3-.2-1.006 1.628.142 1.14 1.628-.692.932-1.15.971-1.451.122-.941-1.594.958-1.63-.587-.05-2.167 1.451-1.451 3.165-1.6 2.3-.2-1.006 1.628.142 1.14 1.628-.692.932-1.15.971-1.451.122-.941-1.594.958-1.63-.587-.05-2.167 1.451-1.451 3.165-1.6 2.3-.2-1.006 1.628.142 1.14 1.628-.692.932-1.15.971-1.451.122-.941-1.594.958-1.63-.587-.05-2.167 1.451-1.451 3.165-1.6 2.3-.2-1.006 1.628.142 1.14 1.628-.692.932-1.15.971-1.451.122-.941-1.594.958-1.63-.587-.05-2.167 1.451-1.451 3.165-1.6 2.3-.2-1.006 1.628.142 1.14 1.628-.692.932-1.15.971-1.451.122-.941-1.594.958-1.63-.587-.05-2.167 1.451-1.451 3.165-1.6 2.3-.2-1.006 1.628.142 1.14 1.628-.692.932-1.15.971-1.451.122-.941-1.594.958-1.63-.587-.05-2.167 1.451-1.451 3.165-1.6 2.3-.2-1.006 1.628.142 1.14 1.628-.692.932-1.15.971-1.451.122-.941-1.594.958-1.63-.587-.05-2.167 1.451-1.451 3.165-1.6 2.3-.2-1.006 1.628.142 1.14 1.628-.692.932-1.15.971-1.451.122-.941-1.594.958-1.63-.587-.05-2.167 1.58-1.58 3.125-1.544 2.167.05-.51.849-.209.81.941-.122 1.832-1.486 2.32-2.634.692-1.628-1.4.865-1.251-.849.2-2.3 1.58-1.58 3.125-1.544 2.167.05-.51.849-.209.81.941-.122 1.832-1.486 2.32-2.634.692-1.628-1.4.865-1.251-.849.2-2.3 1.445-1.445 3.167-1.603 2.307-.211-.357.577.069.727 1.025.36 1.271-.487 1.347-.806.342-1.427-1.023-.632-.936-1.196.416-2.69.959-1.06 1.71-3.5 1.71-5.556 0-3.457-1.533-5.218-26.75-30.727a28644.13 28644.13 0 0 1-51.75-52.507c-22.567-22.971-25.318-25.447-28.265-25.445-2.608.002-3.663.656-5.246 3.253M139.32 66c0 3.575.182 5.037.403 3.25.222-1.787.222-4.713 0-6.5-.221-1.788-.403-.325-.403 3.25M105 150.919V184h7v-28l12.75-.042c15.367-.05 21.065-1.649 25.529-7.164 4.082-5.044 4.908-14.323 1.883-21.161-1.712-3.869-2.94-5.106-6.873-6.92-4.256-1.962-6.764-2.245-22.539-2.542l-17.75-.333v33.081m7.219-14.266.281 12.847 11.076.281c13.384.34 17.905-.875 21.137-5.679 3.759-5.585 2.655-12.742-2.714-17.604-1.937-1.754-3.904-2.04-16.133-2.345l-13.927-.346.28 12.846M59.158 143c0 1.375.227 1.938.504 1.25.278-.687.278-1.812 0-2.5-.277-.687-.504-.125-.504 1.25M211 211c-22 22-40 40.285-40 40.633 0 .347 8.942-8.315 19.871-19.25 10.928-10.936 29.21-29.221 40.626-40.633 11.416-11.412 20.474-20.75 20.13-20.75-.345 0-18.627 18-40.627 40" fill="#1976D2" fill-rule="evenodd"/><path fill-opacity=".535" d="M144.805 48.75c-1.863 2.167-4.811 14.329-4.808 19.835.004 5.03 2.894 13.957 7.095 21.915 2.842 5.382 6.289 15.452 5.545 16.196-.159.16-2.571-2.557-5.359-6.037-5.648-7.048-12.85-12.205-21.617-15.479-7.408-2.766-20.05-2.925-26.434-.333-6.188 2.512-15.621 9.685-22.244 16.913-17.924 19.56-21.194 45.899-9.871 79.489l2.949 8.749-2.249 3.042c-3.02 4.085-1.644 6.191 4.785 7.324 2.697.474 8.278 1.903 12.403 3.174 23.377 7.202 41.374 9.159 56 6.09 10.932-2.294 22.396-8.418 29.809-15.923 13.76-13.93 18.17-22.484 18.152-35.205-.021-14.702-6.532-25.897-20.764-35.704-3.493-2.407-4.081-3.231-3.124-4.384 2.207-2.659 12.439-8.266 19.039-10.432 8.044-2.641 11.689-5.465 12.503-9.69.846-4.388-3.829-9.29-8.86-9.29-3.417 0-11.664 2.256-15.102 4.131-2.475 1.35-2.913.683-1.681-2.557.565-1.487 1.024-5.712 1.018-9.389-.014-9.543-3-15.345-13.26-25.769-8.549-8.684-11.128-9.919-13.925-6.666M104 151v33h8.944l.278-13.75.278-13.75 14.5-.573c15.316-.604 18.157-1.27 21.702-5.085 8.438-9.079 6.509-25.161-3.662-30.539-4.1-2.168-5.456-2.303-23.197-2.303H104v33m9-14.077V149h12.05c16.697 0 20.95-2.478 20.95-12.207 0-3.846-.56-5.389-2.915-8.027l-2.916-3.266-13.584-.327-13.585-.328v12.078" fill="#1976D2" fill-rule="evenodd"/><path fill-opacity=".559" d="M144.998 49.502c-1.613 1.944-3.919 12.724-3.957 18.498-.042 6.293 1.445 11.178 6.389 21 5.408 10.744 7.465 17.829 5.523 19.029-.975.603-2.295-.548-4.669-4.074-6.523-9.685-15.31-16.207-25.52-18.94-7.893-2.112-20.376-.95-27.365 2.549C83.433 93.553 69.556 109.946 64.555 124c-4.116 11.565-3.8 31.992.742 48 1.326 4.675 3.022 10.642 3.767 13.26 1.22 4.283 1.176 5.064-.441 7.801-2.614 4.425-1.577 5.934 4.096 5.964 2.629.014 8.831 1.372 13.781 3.018 10.727 3.566 25.163 6.617 35.5 7.502 10.244.878 24.887-2.151 34.884-7.215 12.562-6.363 26.314-21.691 29.774-33.187 1.71-5.683 1.7-15.211-.023-21.681-2.435-9.141-9.136-17.432-19.585-24.232l-5.45-3.547 4.305-3.821c5.128-4.55 8.306-6.266 17.521-9.461 11.661-4.043 14.033-6.678 11.107-12.337-2.647-5.119-9.419-5.3-20.184-.54-3.111 1.376-5.792 2.366-5.958 2.2-.167-.166.397-2.31 1.253-4.763 1.065-3.055 1.411-6.667 1.1-11.461-.581-8.936-4.883-16.595-14.238-25.345-6.71-6.277-9.293-7.322-11.508-4.653m-41.544 68.756c-.265.692-.363 15.88-.218 33.75l.264 32.492 5.25.302 5.25.303V157h12.374c17.618 0 23.567-2.467 27.736-11.5 4.975-10.779-.362-24.162-10.893-27.317-5.633-1.688-39.11-1.625-39.763.075M114 137.079v11.08l13.089-.33c12.926-.325 13.119-.364 15.5-3.135 3.673-4.274 3.428-11.831-.512-15.771-2.921-2.921-2.933-2.923-15.5-2.923H114v11.079" fill="#1976D2" fill-rule="evenodd"/></svg>