<?xml version="1.0" encoding="UTF-8" standalone="no"?>
<!-- Created with Inkscape (http://www.inkscape.org/) -->

<svg
   xmlns:dc="http://purl.org/dc/elements/1.1/"
   xmlns:cc="http://creativecommons.org/ns#"
   xmlns:rdf="http://www.w3.org/1999/02/22-rdf-syntax-ns#"
   xmlns:svg="http://www.w3.org/2000/svg"
   xmlns="http://www.w3.org/2000/svg"
   xmlns:sodipodi="http://sodipodi.sourceforge.net/DTD/sodipodi-0.dtd"
   xmlns:inkscape="http://www.inkscape.org/namespaces/inkscape"
   width="48"
   height="48"
   viewBox="0 0 12.7 12.7"
   version="1.1"
   id="svg8"
   inkscape:version="0.92.4 (5da689c313, 2019-01-14)"
   sodipodi:docname="peachpage-icon.svg">
  <defs
     id="defs2" />
  <sodipodi:namedview
     id="base"
     pagecolor="#ffffff"
     bordercolor="#666666"
     borderopacity="1.0"
     inkscape:pageopacity="0.0"
     inkscape:pageshadow="2"
     inkscape:zoom="3.959798"
     inkscape:cx="18.338083"
     inkscape:cy="28.287894"
     inkscape:document-units="mm"
     inkscape:current-layer="layer1"
     showgrid="false"
     inkscape:window-width="1366"
     inkscape:window-height="705"
     inkscape:window-x="-8"
     inkscape:window-y="-8"
     inkscape:window-maximized="1"
     units="px" />
  <metadata
     id="metadata5">
    <rdf:RDF>
      <cc:Work
         rdf:about="">
        <dc:format>image/svg+xml</dc:format>
        <dc:type
           rdf:resource="http://purl.org/dc/dcmitype/StillImage" />
        <dc:title></dc:title>
      </cc:Work>
    </rdf:RDF>
  </metadata>
  <g
     inkscape:label="Layer 1"
     inkscape:groupmode="layer"
     id="layer1"
     transform="translate(0,-284.30001)">
    <g
       id="g948"
       transform="matrix(0.23500559,0,0,0.23500559,-15.590151,258.66971)">
      <g
         style="fill:#ff8080;fill-opacity:1"
         transform="matrix(0.05154691,0,0,0.05154691,68.874248,111.59734)"
         id="g914">
        <g
           style="fill:#ff8080;fill-opacity:1"
           id="g858">
	<path
   style="fill:#ff8080;fill-opacity:1"
   inkscape:connector-curvature="0"
   d="m 836.824,249.146 c -25.199,-6.5 -56.6,5.5 -80.3,13.4 -17.8,6 -34.8,14.7 -51,24.4 16.9,-38.5 28.601,-83.7 18.3,-124.7 -17.199,-68.9 -82.6,-127.8 -119.6,-156.5 -14,-10.8 -32.4,-5.9 -38.5,10.7 -16.3,44.4 -37.8,131 5.6,203.2 31.4,52.3 45.801,97.1 52.301,128.3 -4.301,4 -8.601,8.1 -12.7,12.3 -22.601,-43.2 -67.5,-107.2 -144,-134.5 -120.601,-43 -197.3,-2.7 -279.6,79.6 -125.8,125.7 -137.4,297.8 -56.9,513.7 5.8,13.5 -1.3,28 -13.8,42.6 -10.6,14.1 -6.8,24.4 10.9,25.4 33,-1.301 68,7 81.3,11.699 205,76.9 391.4,73.7 518.4,-53.3 76.7,-76.7 123.5,-157.7 88,-271.3 -23.7,-75.7 -98.4,-126.5 -145.5,-152 37.2,-37.9 79.8,-64.7 131.4,-78.2 25.899,-6.8 65.1,-15.9 69.3,-48 2.5,-19.899 -14.101,-41.799 -33.601,-46.799 z"
   id="path856" />

</g>
        <g
           style="fill:#ff8080;fill-opacity:1"
           id="g860">
</g>
        <g
           style="fill:#ff8080;fill-opacity:1"
           id="g862">
</g>
        <g
           style="fill:#ff8080;fill-opacity:1"
           id="g864">
</g>
        <g
           style="fill:#ff8080;fill-opacity:1"
           id="g866">
</g>
        <g
           style="fill:#ff8080;fill-opacity:1"
           id="g868">
</g>
        <g
           style="fill:#ff8080;fill-opacity:1"
           id="g870">
</g>
        <g
           style="fill:#ff8080;fill-opacity:1"
           id="g872">
</g>
        <g
           style="fill:#ff8080;fill-opacity:1"
           id="g874">
</g>
        <g
           style="fill:#ff8080;fill-opacity:1"
           id="g876">
</g>
        <g
           style="fill:#ff8080;fill-opacity:1"
           id="g878">
</g>
        <g
           style="fill:#ff8080;fill-opacity:1"
           id="g880">
</g>
        <g
           style="fill:#ff8080;fill-opacity:1"
           id="g882">
</g>
        <g
           style="fill:#ff8080;fill-opacity:1"
           id="g884">
</g>
        <g
           style="fill:#ff8080;fill-opacity:1"
           id="g886">
</g>
        <g
           style="fill:#ff8080;fill-opacity:1"
           id="g888">
</g>
      </g>
      <text
         id="text918"
         y="152.99107"
         x="83.88063"
         style="font-style:normal;font-weight:normal;font-size:28.25911331px;line-height:1.25;font-family:sans-serif;letter-spacing:0px;word-spacing:0px;fill:#ffffff;fill-opacity:1;stroke:none;stroke-width:0.70647782"
         xml:space="preserve"><tspan
           style="fill:#ffffff;stroke-width:0.70647782"
           y="152.99107"
           x="83.88063"
           id="tspan916"
           sodipodi:role="line">P</tspan></text>
    </g>
  </g>
</svg>
