<svg xmlns="http://www.w3.org/2000/svg" xmlns:svg="http://www.w3.org/2000/svg" id="svg8" width="48" height="48" version="1.1" viewBox="0 0 12.7 12.7"><metadata id="metadata5"/><g id="layer1" transform="translate(0,-284.30001)"><g id="g948" transform="matrix(0.23500559,0,0,0.23500559,-15.590151,258.66971)"><g style="fill:#ca054d;fill-opacity:1" id="g914" transform="matrix(0.05154691,0,0,0.05154691,68.874248,111.59734)"><g style="fill:#ca054d;fill-opacity:1" id="g858"><path style="fill:#ca054d;fill-opacity:1" id="path856" d="m 836.824,249.146 c -25.199,-6.5 -56.6,5.5 -80.3,13.4 -17.8,6 -34.8,14.7 -51,24.4 16.9,-38.5 28.601,-83.7 18.3,-124.7 -17.199,-68.9 -82.6,-127.8 -119.6,-156.5 -14,-10.8 -32.4,-5.9 -38.5,10.7 -16.3,44.4 -37.8,131 5.6,203.2 31.4,52.3 45.801,97.1 52.301,128.3 -4.301,4 -8.601,8.1 -12.7,12.3 -22.601,-43.2 -67.5,-107.2 -144,-134.5 -120.601,-43 -197.3,-2.7 -279.6,79.6 -125.8,125.7 -137.4,297.8 -56.9,513.7 5.8,13.5 -1.3,28 -13.8,42.6 -10.6,14.1 -6.8,24.4 10.9,25.4 33,-1.301 68,7 81.3,11.699 205,76.9 391.4,73.7 518.4,-53.3 76.7,-76.7 123.5,-157.7 88,-271.3 -23.7,-75.7 -98.4,-126.5 -145.5,-152 37.2,-37.9 79.8,-64.7 131.4,-78.2 25.899,-6.8 65.1,-15.9 69.3,-48 2.5,-19.899 -14.101,-41.799 -33.601,-46.799 z"/></g></g><text id="text918" x="83.881" y="152.991" style="font-style:normal;font-weight:400;font-size:28.25911331px;line-height:1.25;font-family:sans-serif;letter-spacing:0;word-spacing:0;fill:#fff;fill-opacity:1;stroke:none;stroke-width:.70647782" xml:space="preserve"><tspan style="fill:#fff;stroke-width:.70647782" id="tspan916" x="83.881" y="152.991">P</tspan></text></g></g></svg>